<svg id="_02_Logo" data-name="02_Logo" xmlns="http://www.w3.org/2000/svg" viewBox="0 0 1000 1000"><title>JB_Logo_black_alpha_square</title><g id="JB_Logo_black_alpha_square"><path d="M830.14,530.2q-19.86-35.57-74.47-56.26,66.18-39.72,66.19-108.4,0-45.5-18.62-76.53T751.54,239q-33.1-19-79-26.9T572,204.2q-40.54,0-87.71,3.72l-.31,0c-23.26,1.84-46.58,2.87-69.91,2.87H392.43v374q0,54.62-20.68,77.78T303.9,685.76q-32.28,0-59.58-10.76A364.91,364.91,0,0,1,193,650.18L150,750.3q26.46,18.19,67,31.85t96.81,13.65q61.21,0,101.35-16.13c.57-.23,1.06-.52,1.62-.75a649.29,649.29,0,0,0,77.81,9.85q46.74,2.9,93.92,2.9,129.9,0,195.68-45.51T850,610.46Q850,565.77,830.14,530.2Z"/></g></svg>