<svg id="_02_Logo" data-name="02_Logo" xmlns="http://www.w3.org/2000/svg" xmlns:xlink="http://www.w3.org/1999/xlink" viewBox="0 0 1000 1000"><defs><style>.cls-1{fill:none;}.cls-2{clip-path:url(#clip-path);}.cls-3{fill:#47ab6c;}.cls-4{fill:#0894a1;}.cls-5{fill:#f2b134;}.cls-6{fill:#112f41;}.cls-7{fill:#ed553b;}</style><clipPath id="clip-path"><path class="cls-1" d="M830.14,530.2q-19.86-35.57-74.47-56.26,66.18-39.72,66.19-108.4,0-45.5-18.62-76.53T751.54,239q-33.1-19-79-26.9T572,204.2q-40.54,0-87.71,3.72l-.31,0c-23.26,1.84-46.58,2.87-69.91,2.87H392.43v374q0,54.62-20.68,77.78T303.9,685.76q-32.28,0-59.58-10.76A364.91,364.91,0,0,1,193,650.18L150,750.3q26.46,18.19,67,31.85t96.81,13.65q61.21,0,101.35-16.13c.57-.23,1.06-.52,1.62-.75a649.29,649.29,0,0,0,77.81,9.85q46.74,2.9,93.92,2.9,129.9,0,195.68-45.51T850,610.46Q850,565.77,830.14,530.2Z"/></clipPath></defs><title>JB_Logo_color_alpha_square</title><g id="JB_Logo_color_alpha_square"><g id="_02_Logo_color_alpha" data-name="02_Logo_color_alpha"><g class="cls-2"><polygon class="cls-3" points="1000 636.39 1000 707.11 707.11 1000 636.39 1000 1000 636.39"/><polygon class="cls-4" points="1000 565.69 1000 636.39 636.39 1000 565.69 1000 1000 565.69"/><polygon class="cls-5" points="1000 494.97 1000 565.69 565.69 1000 494.97 1000 1000 494.97"/><polygon class="cls-6" points="1000 424.27 1000 494.97 494.97 1000 424.27 1000 1000 424.27"/><polygon class="cls-7" points="1000 353.55 1000 424.27 424.27 1000 353.55 1000 1000 353.55"/><polygon class="cls-3" points="1000 292.9 1000 353.55 353.55 1000 292.9 1000 287.87 994.97 994.97 287.87 1000 292.9"/><rect class="cls-5" x="123.74" y="598.74" width="1000" height="50" transform="translate(-258.36 623.74) rotate(-45)"/><rect class="cls-4" x="88.39" y="563.39" width="1000" height="50" transform="translate(-243.72 588.39) rotate(-45)"/><rect class="cls-7" x="53.03" y="528.03" width="1000" height="50" transform="translate(-229.07 553.03) rotate(-45)"/><rect class="cls-6" x="17.68" y="492.68" width="1000" height="50" transform="translate(-214.43 517.68) rotate(-45)"/><rect class="cls-3" x="-17.68" y="457.32" width="1000" height="50" transform="translate(-199.78 482.32) rotate(-45)"/><rect class="cls-4" x="-53.03" y="421.97" width="1000" height="50" transform="translate(-185.14 446.97) rotate(-45)"/><rect class="cls-5" x="-88.39" y="386.61" width="1000" height="50" transform="translate(-170.5 411.61) rotate(-45)"/><rect class="cls-6" x="-123.74" y="351.26" width="1000" height="50" transform="translate(-155.85 376.26) rotate(-45)"/><polygon class="cls-7" points="712.13 5.03 5.03 712.13 0 707.1 0 646.45 646.45 0 707.1 0 712.13 5.03"/><polygon class="cls-3" points="646.45 0 0 646.45 0 575.73 575.73 0 646.45 0"/><polygon class="cls-5" points="575.73 0 0 575.73 0 505.03 505.03 0 575.73 0"/><polygon class="cls-4" points="505.03 0 0 505.03 0 434.31 434.31 0 505.03 0"/><polygon class="cls-7" points="434.31 0 0 434.31 0 363.61 363.61 0 434.31 0"/><polygon class="cls-6" points="363.61 0 0 363.61 0 292.89 292.89 0 363.61 0"/></g></g></g></svg>