<?xml version="1.0" encoding="utf-8"?>
<!-- Generator: Adobe Illustrator 23.0.1, SVG Export Plug-In . SVG Version: 6.00 Build 0)  -->
<svg version="1.1" id="Ebene_1" xmlns="http://www.w3.org/2000/svg" xmlns:xlink="http://www.w3.org/1999/xlink" x="0px" y="0px"
	 viewBox="0 0 400 100" style="enable-background:new 0 0 400 100;" xml:space="preserve">
<style type="text/css">
	.st0{fill:#FFFFFF;}
</style>
<g id="Hilfslinien">
</g>
<g>
	<path transform="translate(0.000000,720.000000) scale(0.100000,-0.100000)" class="st0" d="M3479.01,7149.65
		c-73.92-4.79-151.53-31.35-212.86-72.82c-64.75-43.8-116.08-102.94-149.34-171.93c-18.21-37.78-29.57-73.37-37.37-117.17
		c-5.89-32.85-7.12-82.4-3.01-120.46c5.48-51.19,24.23-112.52,49.55-162.62l7.25-14.1l-16.84-50.24
		c-9.31-27.65-26.15-78.02-37.51-111.97c-11.5-34.08-20.81-62.83-20.81-64.2c0-1.23,1.78-3.01,3.97-3.83
		c3.56-1.37,3.97-1.92,3.29-6.16c-0.82-4.38-0.68-4.65,2.46-3.7c5.61,1.78,128.12,40.79,179.87,57.49
		c27.1,8.62,50.37,15.74,51.74,15.74c1.23,0,7.12-2.33,13-5.34c50.1-25.19,103.48-40.24,160.29-45.45
		c22.45-1.92,68.17-0.96,90.21,2.19c130.59,18.07,241.74,90.21,310.18,200.95c22.31,36.14,43.53,86.51,54.89,130.31
		c10.81,42.02,16.02,94.18,13.14,134.42c-7.39,106.91-48.73,201.63-120.6,276.1c-69.67,72.14-158.38,116.76-259.4,130.31
		C3546.36,7149.1,3495.16,7150.74,3479.01,7149.65z M3532.53,7056.02c48.87-3.97,88.98-14.78,131.27-35.45
		c57.35-28.2,105.4-70.36,140.99-124.02c27.38-41.2,44.21-85.55,50.78-134.01c3.15-23,3.15-69.54,0-93.08
		c-22.31-165.49-158.92-293.07-324.69-303.47c-58.45-3.56-112.79,6.02-165.9,29.29c-14.65,6.43-38.88,19.57-46.4,25.05
		c-2.33,1.78-5.34,3.29-6.71,3.29c-1.23,0-30.39-8.9-64.61-19.85s-62.42-19.85-62.56-19.57c-0.27,0.27,8.49,26.97,19.3,59.27
		c10.81,32.44,19.71,60.5,19.71,62.69c0,2.19-2.46,7.25-6.02,12.32c-57.22,81.99-75.83,195.2-48.05,291.15
		c6.16,20.81,11.22,33.54,21.22,53.38c27.38,53.52,69.13,100.2,120.46,134.42C3376.07,7040.69,3456.97,7062.04,3532.53,7056.02z
		 M3351.43,6929.54c-3.15-0.96-7.67-3.15-10.27-4.65c-6.98-4.38-27.24-26.01-33.54-35.86c-20.12-31.35-24.64-73.1-12.59-113.89
		c9.17-30.8,20.4-54.34,40.93-86.1c26.01-39.97,42.84-61.6,69.81-89.39c40.52-41.75,74.6-65.16,126.89-86.92
		c38.6-16.15,67.07-25.32,83.09-26.97c11.09-1.09,35.32,2.74,49.55,7.94c19.71,7.12,42.3,23,51.06,35.86
		c8.76,13.14,17.8,42.85,18.89,62.56l0.82,13l-4.24,4.93c-3.01,3.29-15.33,10.68-40.24,24.09c-59.13,31.76-66.66,34.77-75.97,29.84
		c-2.33-1.1-11.09-9.99-19.3-19.57c-24.37-28.33-29.43-33.26-33.54-33.26c-5.2,0-39.29,17.38-55.16,28.06
		c-18.48,12.59-30.53,22.72-45.72,38.46c-18.07,18.75-37.64,45.58-48.59,66.53l-2.46,4.93l9.86,10.81
		c13,13.83,18.34,22.18,23.54,36.69c5.34,14.78,5.06,19.3-2.74,39.7c-6.98,18.21-12.59,33.26-22.31,59.41
		c-7.94,21.49-13.83,30.25-22.04,32.85C3389.35,6930.91,3357.86,6931.59,3351.43,6929.54z"/>
	<path id="_x3C_Zusammengesetzter_Pfad_x3E_" transform="translate(-247,-404.36218)" class="st0" d="M538.7,461.71
		c0.45-2.4,0.6-4.8,0.6-7.35c0-23.4-18.9-42.3-42.3-42.3c-2.55,0-4.95,0.15-7.35,0.6c-3.75-2.1-7.95-3.3-12.45-3.3
		c-13.95,0-25.2,11.25-25.2,25.2c0,4.5,1.2,8.85,3.3,12.45c-0.45,2.4-0.6,4.8-0.6,7.35c0,23.4,18.9,42.3,42.3,42.3
		c2.55,0,4.95-0.15,7.35-0.6c3.75,2.1,7.95,3.3,12.45,3.3c13.95,0,25.2-11.25,25.2-25.2C542,469.66,540.8,465.46,538.7,461.71z
		 M516.8,492.91c-3.3,0-6.45-0.9-9.3-2.4l-1.95-1.2l-2.25,0.45c-1.95,0.3-4.05,0.6-6.3,0.6c-19.8,0-35.85-16.05-35.85-35.85
		c0-2.1,0.15-4.2,0.6-6.3l0.45-2.25l-1.35-2.1c-1.65-2.85-2.4-6-2.4-9.3c0-10.35,8.4-18.75,18.75-18.75c3.3,0,6.45,0.9,9.3,2.4
		l1.95,1.2l2.25-0.45c2.1-0.3,4.2-0.6,6.3-0.6c19.8,0,35.85,16.05,35.85,35.85c0,2.1-0.15,4.2-0.6,6.3l-0.45,2.25l1.2,1.95
		c1.65,2.85,2.4,6,2.4,9.3C535.55,484.51,527.15,492.91,516.8,492.91L516.8,492.91z M504.65,450.31l-9.45-2.1
		c-3.6-0.9-7.65-1.95-7.65-5.4s2.85-5.85,8.1-5.85c10.65,0,9.75,7.35,15,7.35c2.7,0,5.1-1.5,5.1-4.35c0-6.6-10.5-11.55-19.5-11.55
		c-9.6,0-19.8,3.9-19.8,15c0,5.25,1.8,10.95,12.15,13.65l12.9,3.3c3.9,0.9,5.1,3.15,5.1,5.1c0,3.3-3.45,6.9-9.3,6.9
		c-11.55,0-9.9-9.15-16.05-9.15c-2.7,0-4.95,1.95-4.95,4.65c0,5.4,6.6,12.75,21,12.75c13.8,0,20.7-6.9,20.7-15.9
		C517.85,458.71,515.15,452.71,504.65,450.31L504.65,450.31z"/>
	<path class="st0" d="M143.46,24.48l-0.09,0.02l0.02,0.6c0.01,0.34,0.03,1.39,0.04,2.34c0.07,5.4,0.21,10.21,0.34,11.14
		c0.03,0.21,0.06,0.28,0.14,0.36c0.1,0.08,0.14,0.09,0.43,0.08c0.18-0.01,0.44-0.06,0.58-0.11c0.36-0.12,1.01-0.46,1.3-0.66
		c0.27-0.19,0.71-0.63,1.09-1.11l0.26-0.31l0-1.07c0-0.59-0.01-1.45-0.02-1.92s-0.04-2.29-0.06-4.03l-0.04-3.17l-0.12-0.24
		c-0.08-0.17-0.21-0.33-0.42-0.54C145.96,24.95,144.35,24.31,143.46,24.48z M141.48,24.54c-1.16,0.11-2.61,0.42-3.65,0.77
		c-3.43,1.2-5.63,3.41-6.41,6.47c-0.27,1.06-0.32,1.5-0.32,3.07c0.01,2.46,0.2,5.35,0.53,8.04c0.77,6.14,2.32,11.44,4.36,14.91
		c0.33,0.56,1.41,2.19,2.3,3.47c4.55,6.56,8.77,10.76,12.92,12.84c2.59,1.31,5.33,1.74,7.48,1.21c1.47-0.37,3.2-0.95,4.61-1.54
		c1.07-0.45,3.24-1.6,3.23-1.7c0-0.02-1.48-1.19-3.28-2.6c-1.8-1.42-4.44-3.48-5.84-4.59l-2.57-2.02l-0.39,0.19
		c-1.25,0.61-2.58,0.75-3.59,0.37c-0.53-0.2-1.06-0.58-1.46-1.05c-0.88-1.02-3.05-4.88-6.37-11.27c-1.86-3.58-2.88-5.63-2.98-6.01
		c-0.48-1.72-0.28-3.23,0.57-4.37c0.39-0.51,0.85-0.9,1.53-1.27l0.36-0.19l-0.01-0.44c0-0.24-0.1-3.47-0.2-7.17
		c-0.11-3.7-0.2-6.83-0.2-6.96v-0.23l-0.13,0C141.89,24.5,141.67,24.52,141.48,24.54z M157.44,60.91c-0.88,0.47-1.6,0.86-1.61,0.87
		c0,0.03,11.94,9.51,12,9.53c0.04,0.01,0.39-1.02,0.89-2.63c0.16-0.53,0.19-0.67,0.19-0.96c0-0.32-0.01-0.36-0.17-0.69
		c-0.1-0.21-0.26-0.44-0.4-0.59c-0.38-0.41-6.01-4.8-7.24-5.64c-0.62-0.42-1.26-0.68-1.81-0.72l-0.25-0.02L157.44,60.91z M150,12
		c20.95,0,38,17.05,38,38s-17.05,38-38,38s-38-17.05-38-38S129.05,12,150,12 M150,5c-24.85,0-45,20.15-45,45s20.15,45,45,45
		s45-20.15,45-45S174.85,5,150,5L150,5z"/>
	<path class="st0" d="M27.5,33.93v32.14h45V33.93H27.5z M66.07,37.14L50,50.4L33.93,37.14H66.07z M30.71,40.36l12.66,9.62
		l-12.66,9.66V40.36z M33.93,62.86L46.69,52.5L50,55.02l3.31-2.52l12.76,10.35H33.93z M69.29,59.64L56.61,50l12.68-9.64V59.64z
		 M50,12c20.95,0,38,17.05,38,38S70.95,88,50,88S12,70.95,12,50S29.05,12,50,12 M50,5C25.15,5,5,25.15,5,50s20.15,45,45,45
		s45-20.15,45-45S74.85,5,50,5L50,5z"/>
</g>
</svg>
